<mxfile host="Electron" agent="Mozilla/5.0 (Windows NT 10.0; Win64; x64) AppleWebKit/537.36 (KHTML, like Gecko) draw.io/24.7.17 Chrome/128.0.6613.36 Electron/32.0.1 Safari/537.36" version="24.7.17">
  <diagram name="Page-1" id="EDKiSx_sQZ2FDCz4JAYO">
    <mxGraphModel dx="605" dy="815" grid="1" gridSize="10" guides="1" tooltips="1" connect="1" arrows="1" fold="1" page="1" pageScale="1" pageWidth="827" pageHeight="1169" math="0" shadow="0">
      <root>
        <mxCell id="0" />
        <mxCell id="1" parent="0" />
        <mxCell id="GOiyWW2Ux3JY0sKtTEi4-4" value="participer" style="ellipse;whiteSpace=wrap;html=1;" vertex="1" parent="1">
          <mxGeometry x="122.5" y="350" width="90" height="40" as="geometry" />
        </mxCell>
        <mxCell id="GOiyWW2Ux3JY0sKtTEi4-5" value="sponsoriser" style="ellipse;whiteSpace=wrap;html=1;" vertex="1" parent="1">
          <mxGeometry x="324" y="90" width="90" height="40" as="geometry" />
        </mxCell>
        <mxCell id="GOiyWW2Ux3JY0sKtTEi4-6" value="joueur" style="swimlane;whiteSpace=wrap;html=1;" vertex="1" parent="1">
          <mxGeometry x="90" y="40" width="160" height="250" as="geometry" />
        </mxCell>
        <mxCell id="GOiyWW2Ux3JY0sKtTEi4-7" value="nom VARCHAR" style="text;html=1;align=center;verticalAlign=middle;resizable=0;points=[];autosize=1;strokeColor=none;fillColor=none;" vertex="1" parent="GOiyWW2Ux3JY0sKtTEi4-6">
          <mxGeometry y="30" width="110" height="30" as="geometry" />
        </mxCell>
        <mxCell id="GOiyWW2Ux3JY0sKtTEi4-12" value="nationalitÃ© VARCHAR" style="text;html=1;align=center;verticalAlign=middle;resizable=0;points=[];autosize=1;strokeColor=none;fillColor=none;" vertex="1" parent="GOiyWW2Ux3JY0sKtTEi4-6">
          <mxGeometry y="50" width="140" height="30" as="geometry" />
        </mxCell>
        <mxCell id="GOiyWW2Ux3JY0sKtTEi4-13" value="identifiant INT" style="text;html=1;align=center;verticalAlign=middle;whiteSpace=wrap;rounded=0;" vertex="1" parent="GOiyWW2Ux3JY0sKtTEi4-6">
          <mxGeometry x="10" y="80" width="80" height="30" as="geometry" />
        </mxCell>
        <mxCell id="GOiyWW2Ux3JY0sKtTEi4-14" value="date de naissance DATE" style="text;html=1;align=center;verticalAlign=middle;whiteSpace=wrap;rounded=0;" vertex="1" parent="GOiyWW2Ux3JY0sKtTEi4-6">
          <mxGeometry x="5" y="110" width="150" height="30" as="geometry" />
        </mxCell>
        <mxCell id="GOiyWW2Ux3JY0sKtTEi4-15" value="identifiant" style="text;html=1;align=center;verticalAlign=middle;whiteSpace=wrap;rounded=0;" vertex="1" parent="GOiyWW2Ux3JY0sKtTEi4-6">
          <mxGeometry x="10" y="140" width="60" height="30" as="geometry" />
        </mxCell>
        <mxCell id="GOiyWW2Ux3JY0sKtTEi4-8" value="sponsor" style="swimlane;whiteSpace=wrap;html=1;startSize=23;" vertex="1" parent="1">
          <mxGeometry x="510" y="40" width="155" height="250" as="geometry" />
        </mxCell>
        <mxCell id="GOiyWW2Ux3JY0sKtTEi4-9" value="nom VARCHAR" style="text;html=1;align=center;verticalAlign=middle;resizable=0;points=[];autosize=1;strokeColor=none;fillColor=none;" vertex="1" parent="GOiyWW2Ux3JY0sKtTEi4-8">
          <mxGeometry x="-10" y="20" width="110" height="30" as="geometry" />
        </mxCell>
        <mxCell id="GOiyWW2Ux3JY0sKtTEi4-16" value="&lt;u&gt;&lt;b&gt;joueur INT&lt;/b&gt;&lt;/u&gt;" style="text;html=1;align=center;verticalAlign=middle;whiteSpace=wrap;rounded=0;" vertex="1" parent="GOiyWW2Ux3JY0sKtTEi4-8">
          <mxGeometry y="40" width="80" height="30" as="geometry" />
        </mxCell>
        <mxCell id="GOiyWW2Ux3JY0sKtTEi4-10" value="tournoi" style="swimlane;whiteSpace=wrap;html=1;" vertex="1" parent="1">
          <mxGeometry x="90" y="450" width="155" height="280" as="geometry" />
        </mxCell>
        <mxCell id="GOiyWW2Ux3JY0sKtTEi4-11" value="nom VARCHAR" style="text;html=1;align=center;verticalAlign=middle;resizable=0;points=[];autosize=1;strokeColor=none;fillColor=none;" vertex="1" parent="GOiyWW2Ux3JY0sKtTEi4-10">
          <mxGeometry x="-5" y="30" width="110" height="30" as="geometry" />
        </mxCell>
        <mxCell id="GOiyWW2Ux3JY0sKtTEi4-17" value="date DATETIME" style="text;html=1;align=center;verticalAlign=middle;whiteSpace=wrap;rounded=0;" vertex="1" parent="GOiyWW2Ux3JY0sKtTEi4-10">
          <mxGeometry x="-5" y="55" width="105" height="30" as="geometry" />
        </mxCell>
        <mxCell id="GOiyWW2Ux3JY0sKtTEi4-18" value="adresse VARCHAR" style="text;html=1;align=center;verticalAlign=middle;whiteSpace=wrap;rounded=0;" vertex="1" parent="GOiyWW2Ux3JY0sKtTEi4-10">
          <mxGeometry y="85" width="120" height="30" as="geometry" />
        </mxCell>
        <mxCell id="GOiyWW2Ux3JY0sKtTEi4-19" value="participation" style="swimlane;whiteSpace=wrap;html=1;" vertex="1" parent="1">
          <mxGeometry x="440" y="445" width="155" height="280" as="geometry" />
        </mxCell>
        <mxCell id="GOiyWW2Ux3JY0sKtTEi4-20" value="identifiant INT" style="text;html=1;align=center;verticalAlign=middle;resizable=0;points=[];autosize=1;strokeColor=none;fillColor=none;" vertex="1" parent="GOiyWW2Ux3JY0sKtTEi4-19">
          <mxGeometry x="-15" y="30" width="100" height="30" as="geometry" />
        </mxCell>
        <mxCell id="GOiyWW2Ux3JY0sKtTEi4-21" value="&lt;u&gt;&lt;b&gt;joueur INT&lt;/b&gt;&lt;/u&gt;" style="text;html=1;align=center;verticalAlign=middle;whiteSpace=wrap;rounded=0;" vertex="1" parent="GOiyWW2Ux3JY0sKtTEi4-19">
          <mxGeometry y="55" width="70" height="35" as="geometry" />
        </mxCell>
        <mxCell id="GOiyWW2Ux3JY0sKtTEi4-22" value="&lt;u&gt;&lt;b&gt;tournoi VARCHAR&lt;/b&gt;&lt;/u&gt;" style="text;html=1;align=center;verticalAlign=middle;whiteSpace=wrap;rounded=0;" vertex="1" parent="GOiyWW2Ux3JY0sKtTEi4-19">
          <mxGeometry y="85" width="110" height="30" as="geometry" />
        </mxCell>
        <mxCell id="GOiyWW2Ux3JY0sKtTEi4-23" value="" style="endArrow=none;html=1;rounded=0;entryX=0;entryY=1;entryDx=0;entryDy=0;exitX=1;exitY=0.5;exitDx=0;exitDy=0;" edge="1" parent="1" source="GOiyWW2Ux3JY0sKtTEi4-5" target="GOiyWW2Ux3JY0sKtTEi4-16">
          <mxGeometry width="50" height="50" relative="1" as="geometry">
            <mxPoint x="270" y="410" as="sourcePoint" />
            <mxPoint x="320" y="360" as="targetPoint" />
          </mxGeometry>
        </mxCell>
        <mxCell id="GOiyWW2Ux3JY0sKtTEi4-24" value="" style="endArrow=none;html=1;rounded=0;" edge="1" parent="1">
          <mxGeometry width="50" height="50" relative="1" as="geometry">
            <mxPoint x="260" y="130" as="sourcePoint" />
            <mxPoint x="260" y="130" as="targetPoint" />
          </mxGeometry>
        </mxCell>
        <mxCell id="GOiyWW2Ux3JY0sKtTEi4-25" value="" style="endArrow=none;html=1;rounded=0;entryX=0;entryY=0.5;entryDx=0;entryDy=0;exitX=1;exitY=0.25;exitDx=0;exitDy=0;" edge="1" parent="1" source="GOiyWW2Ux3JY0sKtTEi4-6" target="GOiyWW2Ux3JY0sKtTEi4-5">
          <mxGeometry width="50" height="50" relative="1" as="geometry">
            <mxPoint x="250" y="120" as="sourcePoint" />
            <mxPoint x="400" y="360" as="targetPoint" />
          </mxGeometry>
        </mxCell>
        <mxCell id="GOiyWW2Ux3JY0sKtTEi4-26" value="" style="endArrow=none;html=1;rounded=0;entryX=0.5;entryY=1;entryDx=0;entryDy=0;exitX=0.5;exitY=0;exitDx=0;exitDy=0;" edge="1" parent="1" source="GOiyWW2Ux3JY0sKtTEi4-4" target="GOiyWW2Ux3JY0sKtTEi4-6">
          <mxGeometry width="50" height="50" relative="1" as="geometry">
            <mxPoint x="350" y="410" as="sourcePoint" />
            <mxPoint x="400" y="360" as="targetPoint" />
          </mxGeometry>
        </mxCell>
        <mxCell id="GOiyWW2Ux3JY0sKtTEi4-27" value="" style="endArrow=none;html=1;rounded=0;entryX=0.5;entryY=1;entryDx=0;entryDy=0;exitX=0.5;exitY=0;exitDx=0;exitDy=0;" edge="1" parent="1" source="GOiyWW2Ux3JY0sKtTEi4-10" target="GOiyWW2Ux3JY0sKtTEi4-4">
          <mxGeometry width="50" height="50" relative="1" as="geometry">
            <mxPoint x="350" y="410" as="sourcePoint" />
            <mxPoint x="400" y="360" as="targetPoint" />
          </mxGeometry>
        </mxCell>
        <mxCell id="GOiyWW2Ux3JY0sKtTEi4-30" style="edgeStyle=orthogonalEdgeStyle;rounded=0;orthogonalLoop=1;jettySize=auto;html=1;exitX=1;exitY=0.5;exitDx=0;exitDy=0;" edge="1" parent="1" source="GOiyWW2Ux3JY0sKtTEi4-29">
          <mxGeometry relative="1" as="geometry">
            <mxPoint x="370" y="550" as="targetPoint" />
          </mxGeometry>
        </mxCell>
        <mxCell id="GOiyWW2Ux3JY0sKtTEi4-29" value="inscription" style="ellipse;whiteSpace=wrap;html=1;" vertex="1" parent="1">
          <mxGeometry x="300" y="520" width="90" height="40" as="geometry" />
        </mxCell>
        <mxCell id="GOiyWW2Ux3JY0sKtTEi4-31" value="" style="endArrow=none;html=1;rounded=0;entryX=0;entryY=0.5;entryDx=0;entryDy=0;exitX=1;exitY=0.25;exitDx=0;exitDy=0;" edge="1" parent="1" source="GOiyWW2Ux3JY0sKtTEi4-10" target="GOiyWW2Ux3JY0sKtTEi4-29">
          <mxGeometry width="50" height="50" relative="1" as="geometry">
            <mxPoint x="240" y="540" as="sourcePoint" />
            <mxPoint x="280" y="530" as="targetPoint" />
          </mxGeometry>
        </mxCell>
        <mxCell id="GOiyWW2Ux3JY0sKtTEi4-32" value="" style="endArrow=none;html=1;rounded=0;exitX=1;exitY=0.5;exitDx=0;exitDy=0;entryX=0;entryY=0.25;entryDx=0;entryDy=0;" edge="1" parent="1" source="GOiyWW2Ux3JY0sKtTEi4-29" target="GOiyWW2Ux3JY0sKtTEi4-21">
          <mxGeometry width="50" height="50" relative="1" as="geometry">
            <mxPoint x="350" y="410" as="sourcePoint" />
            <mxPoint x="400" y="360" as="targetPoint" />
          </mxGeometry>
        </mxCell>
        <mxCell id="GOiyWW2Ux3JY0sKtTEi4-33" value="1.N" style="text;html=1;align=center;verticalAlign=middle;whiteSpace=wrap;rounded=0;" vertex="1" parent="1">
          <mxGeometry x="264" y="110" width="60" height="30" as="geometry" />
        </mxCell>
        <mxCell id="GOiyWW2Ux3JY0sKtTEi4-34" value="1,N" style="text;html=1;align=center;verticalAlign=middle;whiteSpace=wrap;rounded=0;" vertex="1" parent="1">
          <mxGeometry x="430" y="110" width="60" height="30" as="geometry" />
        </mxCell>
        <mxCell id="GOiyWW2Ux3JY0sKtTEi4-35" value="1,1" style="text;html=1;align=center;verticalAlign=middle;whiteSpace=wrap;rounded=0;" vertex="1" parent="1">
          <mxGeometry x="160" y="300" width="60" height="30" as="geometry" />
        </mxCell>
        <mxCell id="GOiyWW2Ux3JY0sKtTEi4-36" value="1.N" style="text;html=1;align=center;verticalAlign=middle;whiteSpace=wrap;rounded=0;" vertex="1" parent="1">
          <mxGeometry x="152.5" y="410" width="60" height="30" as="geometry" />
        </mxCell>
        <mxCell id="GOiyWW2Ux3JY0sKtTEi4-37" value="1.N" style="text;html=1;align=center;verticalAlign=middle;whiteSpace=wrap;rounded=0;" vertex="1" parent="1">
          <mxGeometry x="370" y="500" width="60" height="30" as="geometry" />
        </mxCell>
        <mxCell id="GOiyWW2Ux3JY0sKtTEi4-38" value="1.N" style="text;html=1;align=center;verticalAlign=middle;whiteSpace=wrap;rounded=0;" vertex="1" parent="1">
          <mxGeometry x="245" y="500" width="60" height="30" as="geometry" />
        </mxCell>
      </root>
    </mxGraphModel>
  </diagram>
</mxfile>
